<svg version="1.1" id="Capa_1" xmlns="http://www.w3.org/2000/svg" xmlns:xlink="http://www.w3.org/1999/xlink" x="0px" y="0px" viewBox="0 0 512 512" style="enable-background:new 0 0 512 512;" xml:space="preserve" width="300" height="300" xmlns:svgjs="http://svgjs.dev/svgjs"><g width="100%" height="100%" transform="matrix(1,0,0,1,0,0)"><g>
	<path style="stroke-linecap: round; stroke-linejoin: round; stroke-miterlimit: 10;" d="&#10;&#9;&#9;M386.926,172.935H125.074v-27.009C125.074,73.618,183.691,15,256,15h0c72.309,0,130.926,58.618,130.926,130.926V172.935z" fill="none" fill-opacity="1" stroke="#eb493a" stroke-opacity="1" data-original-stroke-color="#000000ff" stroke-width="30" data-original-stroke-width="30"/>
	
		<polygon style="stroke-linecap: round; stroke-linejoin: round; stroke-miterlimit: 10;" points="&#10;&#9;&#9;399.783,497 112.217,497 77.669,172.935 434.331,172.935 &#9;" fill="none" fill-opacity="1" stroke="#eb493a" stroke-opacity="1" data-original-stroke-color="#000000ff" stroke-width="30" data-original-stroke-width="30"/>
	
		<line style="stroke-linecap: round; stroke-linejoin: round; stroke-miterlimit: 10;" x1="56.514" y1="172.935" x2="455.486" y2="172.935" fill="none" fill-opacity="1" stroke="#eb493a" stroke-opacity="1" data-original-stroke-color="#000000ff" stroke-width="30" data-original-stroke-width="30"/>
	
		<polyline style="stroke-linecap: round; stroke-linejoin: round; stroke-miterlimit: 10;" points="&#10;&#9;&#9;168.401,259.357 182.323,273.28 210.168,245.434 &#9;" fill="none" fill-opacity="1" stroke="#eb493a" stroke-opacity="1" data-original-stroke-color="#000000ff" stroke-width="30" data-original-stroke-width="30"/>
	
		<line style="stroke-linecap: round; stroke-linejoin: round; stroke-miterlimit: 10;" x1="271.334" y1="265.357" x2="342.599" y2="265.357" fill="none" fill-opacity="1" stroke="#eb493a" stroke-opacity="1" data-original-stroke-color="#000000ff" stroke-width="30" data-original-stroke-width="30"/>
	
		<polyline style="stroke-linecap: round; stroke-linejoin: round; stroke-miterlimit: 10;" points="&#10;&#9;&#9;168.401,334.968 182.323,348.89 210.168,321.045 &#9;" fill="none" fill-opacity="1" stroke="#eb493a" stroke-opacity="1" data-original-stroke-color="#000000ff" stroke-width="30" data-original-stroke-width="30"/>
	
		<line style="stroke-linecap: round; stroke-linejoin: round; stroke-miterlimit: 10;" x1="271.334" y1="340.968" x2="342.599" y2="340.968" fill="none" fill-opacity="1" stroke="#eb493a" stroke-opacity="1" data-original-stroke-color="#000000ff" stroke-width="30" data-original-stroke-width="30"/>
	
		<polyline style="stroke-linecap: round; stroke-linejoin: round; stroke-miterlimit: 10;" points="&#10;&#9;&#9;168.401,410.578 182.323,424.501 210.168,396.656 &#9;" fill="none" fill-opacity="1" stroke="#eb493a" stroke-opacity="1" data-original-stroke-color="#000000ff" stroke-width="30" data-original-stroke-width="30"/>
	
		<line style="stroke-linecap: round; stroke-linejoin: round; stroke-miterlimit: 10;" x1="271.334" y1="416.579" x2="342.599" y2="416.579" fill="none" fill-opacity="1" stroke="#eb493a" stroke-opacity="1" data-original-stroke-color="#000000ff" stroke-width="30" data-original-stroke-width="30"/>
</g><g>
</g><g>
</g><g>
</g><g>
</g><g>
</g><g>
</g><g>
</g><g>
</g><g>
</g><g>
</g><g>
</g><g>
</g><g>
</g><g>
</g><g>
</g></g></svg>