<svg id="Layer_1" enable-background="new 0 0 99 99" viewBox="0 0 99 99" xmlns="http://www.w3.org/2000/svg" width="300" height="300" version="1.1" xmlns:xlink="http://www.w3.org/1999/xlink" xmlns:svgjs="http://svgjs.dev/svgjs"><g width="100%" height="100%" transform="matrix(1,0,0,1,0,0)"><g><circle cx="28.6" cy="38.2" r="7.2" fill="#eb493a" fill-opacity="1" data-original-color="#000000ff" stroke="none" stroke-opacity="1"/><path d="m78 57.4-12.5-5.4c-1.7-.7-3.7-.6-5.3.3l-7.5 4.2 4.5-8.3c.8-1.4.3-3.2-1.1-4.1l.3.1.6-1.3 7-2.9-3.5-4.4 13.4-28.7-1.8-.9-13.1 27.8-2.1-2.7 3.4-30.4-2-.2-3.4 30.9-.2.1.1.2-1.3 12.1c-.7.3-1.3.7-1.7 1.4l-3.9 6.3-5.4-7.4c-1.2-1.6-3.4-2-5.1-.8l-7.8 5.7c-1.2.8-1.4 2.5-.6 3.6l10.6 15-3.1 5.5c-.4.7-.2 1.7.5 2.2l3.9 2.8c1 .7 2.3.2 2.6-1l.4-1.7c.1-.4 0-.8-.1-1.2l-1.8-3.4.9 1.3 5.2-.2 5 26.7 2-.4-4.9-26.4 11.8-.5 5.9 16.1c.4 1 1.4 1.5 2.4 1.3l1.2-.3c1.1-.3 1.8-1.4 1.5-2.5l-4.7-20c-.5-2-2.4-3.3-4.4-3-.1 0-.1 0-.2 0l-5 .2 5.2-3.5 11.7 3.9c.9.3 1.9-.1 2.3-1l1.2-2.8c.2-.8-.2-1.9-1.1-2.3zm-17.3-18.3-2.5 1 1.2-2.6zm-2.7-3.3-2.2 4.7.7-6.6z" fill="#eb493a" fill-opacity="1" data-original-color="#000000ff" stroke="none" stroke-opacity="1"/></g></g></svg>