<svg id="Layer_1" enable-background="new 0 0 512 512" viewBox="0 0 512 512" xmlns="http://www.w3.org/2000/svg" width="300" height="300" version="1.1" xmlns:xlink="http://www.w3.org/1999/xlink" xmlns:svgjs="http://svgjs.dev/svgjs"><g width="100%" height="100%" transform="matrix(1,0,0,1,0,0)"><path d="m342 401.85h-93.77v13.15h93.77zm-7.4 23.15h-78.97v41.73c0 3.37 2.78 6.18 6.18 6.18h66.64c3.37 0 6.15-2.81 6.15-6.18zm-188.25-226.71c-14.2-49.89-1.5-78.55-1.7-81.07-10.32-28.77-49.35-34.04-66.56-8.19-4.08 6.09-6.38 13.38-6.38 20.95 0 9.61 3.17 13.49 3.17 16.02 0 2.78-2.24 5.02-5.02 5.02h-6.41c-20.75 0-31.72 25.31-16.7 40.34 4.28 4.28 10.2 6.94 16.7 6.94h82.9zm196.87 149.1h-96.21l9.89 44.45h76.42zm-90.23-9.98c-19.87-73.02-18.37-184.34.96-251.72 6.55-22.82 15.08-39.88 24.89-48.84-53.38 4.2-108.99 30.59-124.87 84.53-6.52 22.2-6.21 48.78 3.57 79.77.17.4.31.85.4 1.3 12.33 38.27 39.06 83.23 85.07 134.96zm145.96-191.56c-17.57-12.36-41.78.28-41.78 21.77 0 7.06 2.35 9.58 2.35 11.91 0 2.75-2.24 4.99-5.02 4.99-6.21 0-11.08-.37-16.21 4.76-10.29 10.32-2.75 27.69 11.48 27.69h113.81c14.23 0 21.77-17.38 11.45-27.69-2.92-2.95-6.97-4.76-11.45-4.76l-3.4-.03c-2.75-.23-4.79-2.66-4.54-5.41 1.5-17.32-15.82-29.62-31.44-23.3-5.87 2.35-6.83 5.07-9.13 5.9-2.61.91-5.47-.43-6.38-3.03-1.86-5.23-5.29-9.68-9.74-12.8zm-57.88 79.62c-18-6.38-23.61-29.48-9.84-43.26 2.49-2.52 5.5-4.51 8.84-5.84-2.41-39.63-8.59-74.27-17.18-99.04-19.81-57.17-43.14-45.35-59.33 11.08-18.94 66.05-20.44 177.62-.2 249h63.21c9.48-33.42 13.76-74.55 14.5-111.94zm81.58 1.48h-71.66c-.79 37.02-5.02 77.19-14.06 110.47h10.29c30.58-34.39 58.28-72.2 75.43-110.47zm-38.95-95.9c13.15 0 25.09 7.03 31.55 18.14 7.37-4.65 16.27-6.21 24.8-4.28-4.88-68.48-67.07-102.95-128.86-108 23.53 21.52 33.85 82.32 37.42 120.59 4.56-15.53 18.62-26.45 35.09-26.45z" fill="#eb493a" fill-opacity="1" data-original-color="#000000ff" stroke="none" stroke-opacity="1"/></g></svg>