<svg enable-background="new 0 0 512 512" viewBox="0 0 512 512" xmlns="http://www.w3.org/2000/svg" width="300" height="300" version="1.1" xmlns:xlink="http://www.w3.org/1999/xlink" xmlns:svgjs="http://svgjs.dev/svgjs"><g width="100%" height="100%" transform="matrix(1,0,0,1,0,0)"><g id="_x33_4_Hot_Air_Balloon"><g><path d="m455.615 240.525c-10.756-13.425-28.292-18.311-43.806-13.526-2.365-4.536-5.601-8.432-9.355-11.709 10.905-20.226 19.033-38.57 20.417-50.328 9.927-84.279-68.287-153.214-165.215-153.235-.008 0-.016-.001-.024-.001-.003 0-.006-.001-.008-.001-.001 0-.002 0-.003 0-.002 0-.004 0-.006 0-.001 0-.001 0-.002 0s-.001 0-.002 0c-96.497 0-161.749 63.735-165.806 132.187-22.112-11.787-48.987 2.046-52.777 26.434-17.372 2.7-30.705 17.759-30.705 35.877 0 20.02 16.292 36.307 36.312 36.307h83.758c25.328 42.19 54.995 83.759 57.095 86.692 1.137 1.586 2.964 2.525 4.913 2.525h9.373v53.873h-4.342c-12.016 0-21.795 9.779-21.795 21.795 0 12.021 9.779 21.799 21.795 21.799h.477v39.922c0 17.169 13.97 31.139 31.139 31.139h61.174c17.169 0 31.134-13.97 31.134-31.139v-39.922h.477c12.02 0 21.799-9.779 21.799-21.799 0-12.016-9.779-21.795-21.799-21.795h-8.004v-53.873h13.035c1.949 0 3.776-.939 4.913-2.525.488-.682 2.505-3.508 5.571-7.887 1.745.236 3.512.398 5.321.398h122.088c22.564 0 40.923-18.359 40.923-40.923-.002-25.4-23.064-44.767-48.065-40.285zm-164.247 79.141c7.419-27.543 31.94-120.75 33.494-155.139 2.534-56.018-10.498-108.204-33.322-134.8 52.115 18.674 81.816 76.18 76.826 134.007-2.964 34.311-55.029 136.426-65.11 155.931h-11.888zm-67.652-289.947c-22.818 26.592-35.846 78.777-33.317 134.808 1.558 34.4 26.076 127.597 33.494 155.139h-11.888c-10.081-19.506-62.146-121.602-65.105-155.931-5-57.957 24.912-115.427 76.816-134.016zm-21.244 134.261c-4.29-94.837 38.598-169.83 77.758-128.866 21.927 22.941 35.009 74.728 32.56 128.865-1.543 34.136-27.935 133.462-33.942 155.686h-42.433c-6.004-22.219-32.395-121.535-33.943-155.685zm-157.838 66.469c-13.361 0-24.23-10.869-24.23-24.225 0-13.361 10.869-24.23 24.23-24.23 3.337 0 6.041-2.704 6.041-6.041 0-21.32 25.864-32.385 41.158-17.176.135 2.06.314 4.121.557 6.185 1.725 14.647 13.895 39.493 28.889 65.487zm59.753-66.903c-6.363-54.058 28.346-101.595 79.344-124.432-36.168 30.459-52.929 78.591-48.866 125.659 2.961 34.383 48.669 125.873 63.547 154.893h-4.893c-12.412-17.571-85.073-121.659-89.132-156.12zm202.885 305.59c0 10.51-8.547 19.057-19.053 19.057h-61.174c-10.51 0-19.057-8.547-19.057-19.057v-39.922h99.284zm22.276-61.721c0 5.357-4.361 9.717-9.717 9.717h-6.518-111.365-6.518c-5.357 0-9.713-4.361-9.713-9.717 0-5.357 4.356-9.713 9.713-9.713h124.401c5.357 0 9.717 4.356 9.717 9.713zm-117.694-21.795v-53.873h87.891v53.873zm109.888-65.954h-4.893c14.877-29.022 60.587-120.522 63.552-154.893 4.291-49.692-14.549-96.735-48.875-125.645 51.024 22.858 85.706 70.435 79.349 124.418-4.055 34.442-76.72 138.544-89.133 156.12zm141.013-10.015h-119.312c13.897-20.245 35.692-52.983 52.989-83.473 2.811 2.942 5.046 6.475 6.414 10.51 1.169 3.437 5.062 5.076 8.349 3.497 13.222-6.391 28.884-1.891 36.788 10.397 1.444 2.246 4.186 3.28 6.758 2.539 18.54-5.354 36.854 8.611 36.854 27.689.001 15.905-12.935 28.841-28.84 28.841z" fill="#eb493a" fill-opacity="1" data-original-color="#000000ff" stroke="none" stroke-opacity="1"/></g></g><g id="Layer_1"/></g></svg>