<svg id="Layer_1" height="300" viewBox="0 0 179.3948 275.7126" width="300" xmlns="http://www.w3.org/2000/svg" version="1.1" xmlns:xlink="http://www.w3.org/1999/xlink" xmlns:svgjs="http://svgjs.dev/svgjs"><g width="100%" height="100%" transform="matrix(1,0,0,1,0,0)"><g><path d="m100.4293 201.0628c.012-.0301.0074-.0612.0167-.0917 6.3942-11.421 44.5653-60.001 44.5653-60.001s51.8997-54.2899 21.8525-100.7264c-27.6288-42.699-77.1662-40.2168-77.1662-40.2168s-49.5379-2.4822-77.1667 40.2169c-30.0472 46.4365 21.8525 100.7264 21.8525 100.7264s38.2455 48.6747 44.5843 60.0346c.0065.0192.003.039.0106.058l3.4755 8.7072.0944.2365c-.4753.5029-.8096 1.1435-.905 1.8708l-1.1314 8.622h-1.4118c-.5747 0-1.0449.4702-1.0449 1.0449 0 .5507.4354.9941.9772 1.0311l1.6163 8.5975c.144.7662.8132 1.3212 1.5927 1.3212h15.6169c.7795 0 1.4487-.5551 1.5927-1.3212l1.6163-8.5975c.5417-.037.9772-.4804.9772-1.0311 0-.5746-.4702-1.0449-1.0448-1.0449h-1.4113l-1.1314-8.622c-.1105-.8427-.5299-1.5806-1.1339-2.1073-.0892-.0778-.1893-.1416-.2862-.2098zm-15.8411 7.9083-2.3383-5.8579h7.4472.0005 7.4599l-2.3234 5.8198h-9.8351c-.14 0-.2748.0214-.4108.0381zm5.1092-181.3372c40.4871 0 74.0627 11.8332 80.4114 27.3394-12.0164-13.1306-43.4834-22.4999-80.4114-22.4999s-68.395 9.3693-80.4114 22.4999c6.3486-15.5062 39.9242-27.3394 80.4114-27.3394zm-32.7826 136.6615c5.3837 4.7485 18.0336 8.0827 32.7826 8.0827s27.3989-3.3342 32.7826-8.0827c-1.8472 6.5892-15.8161 11.7123-32.7826 11.7123s-30.9354-5.123-32.7826-11.7123zm25.8945 56.2039 1.0853-8.272c.1067.0325.2184.0497.3317.0497.1409 0 .284-.0263.4219-.0815.421-.168.6778-.5608.7062-.9847h8.6979c.0284.4239.2851.8167.7055.9847.1387.0552.2817.0815.4226.0815.3531 0 .6876-.1699.9037-.4552.0552.1088.0977.2256.1143.3521l1.0922 8.3254z" fill="#eb493a" fill-opacity="1" data-original-color="#000000ff" stroke="none" stroke-opacity="1"/><circle cx="86.893" cy="217.061" r="2.062" fill="#eb493a" fill-opacity="1" data-original-color="#000000ff" stroke="none" stroke-opacity="1"/><circle cx="92.502" cy="217.061" r="2.062" fill="#eb493a" fill-opacity="1" data-original-color="#000000ff" stroke="none" stroke-opacity="1"/><path d="m71.4602 275.7126 18.2403-4.6803 18.2341 4.6803 3.4942-1.437-18.0017-4.2013 11.3807-2.9211-3.6265-.6293-11.4811 2.6794-11.4867-2.6794-3.6265.6293 11.3814 2.9211-18.0024 4.2013z" fill="#eb493a" fill-opacity="1" data-original-color="#000000ff" stroke="none" stroke-opacity="1"/><path d="m0 243.546h179.395v1.759h-179.395z" fill="#eb493a" fill-opacity="1" data-original-color="#000000ff" stroke="none" stroke-opacity="1"/></g></g></svg>