<svg xmlns="http://www.w3.org/2000/svg" viewBox="0 0 64 64" width="300" height="300" version="1.1" xmlns:xlink="http://www.w3.org/1999/xlink" xmlns:svgjs="http://svgjs.dev/svgjs"><g width="100%" height="100%" transform="matrix(1,0,0,1,0,0)"><g id="Outline"><g><path d="M60.67,18.4l0-.07A4.56,4.56,0,0,0,56.9,16a3.05,3.05,0,0,0-.43,0,5.08,5.08,0,0,0-5.92-6.58,4.54,4.54,0,0,0-1.09.38,6.24,6.24,0,0,0-4.25-5.5,6.17,6.17,0,0,0-5.62.86,6.4,6.4,0,0,0-1.14,1.06,7,7,0,0,0-12.9,0,6.4,6.4,0,0,0-1.14-1.06,6.23,6.23,0,0,0-9.26,2.34,6.1,6.1,0,0,0-.61,2.3,4.54,4.54,0,0,0-1.09-.38,5.08,5.08,0,0,0-5.92,6.58,3.05,3.05,0,0,0-.43,0,4.55,4.55,0,0,0-3.73,2.3l0,.06A4.56,4.56,0,0,0,7,25.22h.25a4.53,4.53,0,0,0,2.86-1l11.29,5.65L24.55,38H22a3,3,0,0,0,0,6h5v4.17l-2.57,4.29a3,3,0,0,0-.22,2.65l2,5a3,3,0,0,0,5.55.07,3,3,0,0,0,0-2.29l-1.45-3.62,1.32-2.2,1,3A3,3,0,0,0,34.58,57l5.1,1.71a3,3,0,0,0,3.24-.91,2.9,2.9,0,0,0,.56-1A3,3,0,0,0,41.59,53l-4.17-1.4a1,1,0,0,0-.63,1.9L41,54.91a1,1,0,0,1,.63,1.26,1.06,1.06,0,0,1-.18.33,1,1,0,0,1-1.08.3l-5.11-1.71a1,1,0,0,1-.63-.63l-1.74-5.14a1,1,0,0,0-1-.68h0a1,1,0,0,0-.94.68,1.72,1.72,0,0,1-.09.19l-2.49,4.15a1,1,0,0,0-.07.89l1.63,4.08a1,1,0,0,1-.56,1.3,1,1,0,0,1-1.3-.56l-2-5a1,1,0,0,1,.07-.88L28.86,49a1,1,0,0,0,.14-.51V47h6v2a1,1,0,0,0,2,0V44h5a3,3,0,0,0,0-6H39.45l3.11-8.16,11.29-5.65a4.53,4.53,0,0,0,2.86,1H57a4.56,4.56,0,0,0,3.71-6.82Zm-14.13,1,4.87,2.43.9.91-8.7,4.35ZM42,25.76l-2.52-7.57,5.16.64Zm9-14.34a3.09,3.09,0,0,1,3.19,4.82l-1.34,1.88-1.15,1.6L47.24,17.5l1.5-4.12A3.08,3.08,0,0,1,51,11.42ZM40.76,6.83a4.24,4.24,0,0,1,6.46,4.89l-.36,1h0l-1.12,3.08-.41,1.13L39,16.12V10.27A4.2,4.2,0,0,1,40.76,6.83Zm-28.17,15,4.87-2.43,2.93,7.69-8.7-4.35Zm6.8-3,5.16-.64L22,25.76ZM17,8.42a4.17,4.17,0,0,1,2.47-2.17A4.27,4.27,0,0,1,20.78,6,4.26,4.26,0,0,1,25,10.27v5.85l-6.33.79-.41-1.13L17.14,12.7h0l-.36-1A4.16,4.16,0,0,1,17,8.42Zm-6.79,3.83a3.11,3.11,0,0,1,2.18-.9,3.14,3.14,0,0,1,.68.07,3.08,3.08,0,0,1,2.24,2l1.5,4.12-4.44,2.22-.61-.85L9.83,16.24A3.1,3.1,0,0,1,10.16,12.25Zm-3,11a2.55,2.55,0,0,1-2.08-3.83L4.2,18.9l.91.43A2.48,2.48,0,0,1,7.2,18a2.5,2.5,0,0,1,2.22,1.07l1.27,1.78L9.11,22.48A2.52,2.52,0,0,1,7.15,23.22ZM22,42a1,1,0,0,1,0-2h6.38l-1,2Zm7-7a3,3,0,1,1,3,3A3,3,0,0,1,29,35Zm0,10V43.24L30.62,40h2.76L35,43.24V45Zm14-4a1,1,0,0,1-1,1H36.62l-1-2H42A1,1,0,0,1,43,41Zm-7-3a4.92,4.92,0,0,0,1-3,5,5,0,0,0-10,0,4.92,4.92,0,0,0,1,3H26.69l-3.54-9.29L26.72,18H34a1,1,0,0,0,0-2H27V9A5,5,0,0,1,37,9v8a.81.81,0,0,0,.06.31h0l3.8,11.39L37.31,38ZM58.71,22.27a2.57,2.57,0,0,1-1.86.95,2.54,2.54,0,0,1-2-.74l-1.58-1.59,1.27-1.78a2.57,2.57,0,0,1,4.31.21l0,.07h0A2.55,2.55,0,0,1,58.71,22.27Z" fill="#eb493a" fill-opacity="1" data-original-color="#000000ff" stroke="none" stroke-opacity="1"/><path d="M56,46a5,5,0,0,0-8.56,1,3.5,3.5,0,1,0,2.12,6.34A4.93,4.93,0,0,0,52,54a1,1,0,0,0,0-2,3,3,0,0,1-1.91-.71,1,1,0,0,0-.74-.23,1,1,0,0,0-.69.37A1.49,1.49,0,1,1,47.5,49a2,2,0,0,1,.37,0,1,1,0,0,0,.76-.11,1,1,0,0,0,.46-.63,3,3,0,0,1,5.51-.77,1,1,0,0,0,1,.5A2,2,0,0,1,56,48a2,2,0,0,1,0,4,1,1,0,0,0,0,2,4,4,0,0,0,4-4A4,4,0,0,0,56,46Z" fill="#eb493a" fill-opacity="1" data-original-color="#000000ff" stroke="none" stroke-opacity="1"/><path d="M8.84,37.36A4,4,0,1,0,7.51,32,4.38,4.38,0,0,0,7,32a3,3,0,0,0,0,6A2.94,2.94,0,0,0,8.84,37.36ZM6,35a1,1,0,0,1,1-1,1,1,0,0,1,.54.16,1,1,0,0,0,1.52-.61A2,2,0,1,1,11,36a2,2,0,0,1-1.5-.7A1,1,0,0,0,8.74,35h-.1a1,1,0,0,0-.77.52A1,1,0,0,1,6,35Z" fill="#eb493a" fill-opacity="1" data-original-color="#000000ff" stroke="none" stroke-opacity="1"/><path d="M17.47,48a4,4,0,0,0-7,0A4.38,4.38,0,0,0,10,48a3,3,0,0,0,0,6,2.94,2.94,0,0,0,1.84-.64,4.06,4.06,0,0,0,3.78.3A3,3,0,1,0,17.47,48ZM17,52a1,1,0,0,1-.66-.26,1,1,0,0,0-.66-.25,1,1,0,0,0-.56.17,2,2,0,0,1-2.62-.36,1,1,0,0,0-.86-.34,1,1,0,0,0-.77.52A1,1,0,1,1,10,50a1,1,0,0,1,.54.16,1,1,0,0,0,1.52-.61,2,2,0,0,1,3.82-.2,1,1,0,0,0,1,.66H17a1,1,0,0,1,0,2Z" fill="#eb493a" fill-opacity="1" data-original-color="#000000ff" stroke="none" stroke-opacity="1"/></g></g></g></svg>