<svg id="Layer_1" enable-background="new 0 0 64 64" viewBox="0 0 64 64" xmlns="http://www.w3.org/2000/svg" width="300" height="300" version="1.1" xmlns:xlink="http://www.w3.org/1999/xlink" xmlns:svgjs="http://svgjs.dev/svgjs"><g width="100%" height="100%" transform="matrix(1,0,0,1,0,0)"><g><path d="m12.5696917 30.5011406 1.7000122-3.0100098c-.5100098-.2799683-1.0100098-.5800171-1.5-.9199829l-.6900024-.4700317c-.7399902-.5100098-1.6000366-.7799683-2.4800415-.7799683-1.1099854 0-2.1599727.4199829-2.9599605 1.1499634l5.0799556 3.4900513c.2800292.1899414.5600585.3699951.8500366.539978z" fill="#eb493a" fill-opacity="1" data-original-color="#000000ff" stroke="none" stroke-opacity="1"/><path d="m32.9196663 32.7911186 1.7399902-3.3900146h-12.7699566c-2 0-3.9700317-.3699951-5.7999878-1.0799561l-1.7400522 3.0999756c2.0300303.8900146 4.2200327 1.3699951 6.4800425 1.3699951z" fill="#eb493a" fill-opacity="1" data-original-color="#000000ff" stroke="none" stroke-opacity="1"/><path d="m42.0096931 29.401104-1.7399902 3.3900146h2.8299561c2.2700195 0 4.4800415-.4899902 6.5300293-1.3999634l-1.7700195-3.0800171c-1.8399658.7199707-3.7999878 1.0899658-5.8099976 1.0899658h-.0399781z" fill="#eb493a" fill-opacity="1" data-original-color="#000000ff" stroke="none" stroke-opacity="1"/><path d="m5.5096946 28.1211357c-.2999878.7600098-.3800049 1.5800171-.2200317 2.3900146.210022 1.1499634.8600464 2.1499634 1.8200073 2.8099976l2.4200435 1.6699829c.1199951.0900269.25.1699829.3699951.25l1.6900024-3c-.3400269-.2000122-.6700439-.4099731-1-.6300049z" fill="#eb493a" fill-opacity="1" data-original-color="#000000ff" stroke="none" stroke-opacity="1"/><path d="m58.4896736 28.0611382-5.1499634 3.539978c-.3099976.2200317-.6200562.4100342-.9400024.6000366l1.7099609 2.9899902c.0900269-.0599976.1900024-.1300049.2800293-.1900024l2.5-1.7200317c1.709961-1.1799927 2.3299561-3.3699952 1.5999756-5.2199707z" fill="#eb493a" fill-opacity="1" data-original-color="#000000ff" stroke="none" stroke-opacity="1"/><path d="m52.2097054 29.9611626 5.1399536-3.5400391c-.7999878-.7299805-1.8399658-1.1400146-2.9499512-1.1400146-.8900146 0-1.75.2700195-2.4800415.7700195l-.7600098.5300293c-.4799805.3299561-.9799805.6300049-1.4799805.8999634l1.7200317 2.9899902c.2699586-.1699829.5499879-.3299561.8099977-.5099487z" fill="#eb493a" fill-opacity="1" data-original-color="#000000ff" stroke="none" stroke-opacity="1"/><path d="m31.9196682 34.7911186h-11.0899658c-2.6100464 0-5.1300058-.5599976-7.4700327-1.6199951l-1.7299805 3.0700073c2.5200195 1.2800293 5.2999887 1.9400024 8.1599741 1.9400024h10.4299927z" fill="#eb493a" fill-opacity="1" data-original-color="#000000ff" stroke="none" stroke-opacity="1"/><path d="m43.099659 34.7911186h-3.8599854l-1.6499634 3.2900391-.0500488.0999756h6.6100464c2.8899536 0 5.6999512-.6799927 8.2399902-1.9799805l-1.7600098-3.0599976c-2.3499755 1.0799561-4.9100341 1.6499634-7.5300292 1.6499634z" fill="#eb493a" fill-opacity="1" data-original-color="#000000ff" stroke="none" stroke-opacity="1"/><path d="m37.3720589 28.5086479-2.7218628 5.2792969-1.690918 3.3920898-2.4022808 4.8148804 2.2785625 1.1340942 2.9693604-5.9489746 1.7011719-3.3920898 2.7116089-5.2792969z" fill="#eb493a" fill-opacity="1" data-original-color="#000000ff" stroke="none" stroke-opacity="1"/><path d="m32.4108772 44.5831718-3.2578716-1.6268921c-.5166626-.2579956-1.1444092-.0943604-1.4693604.3830566l-3.3292847 4.8912964c-.3101196.4555054-.2446289 1.0592651.1300049 1.4634399 1.4467163 1.56073 3.2285156 2.4505005 5.3453979 2.6693115.5481567.0566406 1.0701294-.2537842 1.2479858-.7753296l1.9097271-5.6002197c.1864015-.5465087-.0599364-1.1467284-.576599-1.404663z" fill="#eb493a" fill-opacity="1" data-original-color="#000000ff" stroke="none" stroke-opacity="1"/><circle cx="29.679" cy="14.879" r="3.249" fill="#eb493a" fill-opacity="1" data-original-color="#000000ff" stroke="none" stroke-opacity="1"/><path d="m32.3596687 27.5711479-2.3399639-2.8200073c-.1799927-.2200317-.1500244-.5300293.0700073-.710022.2099609-.1799927.5199585-.1499634.6999512.0700073l2.8699932 3.460022h8.2700195c.039978-.0499878.0800171-.1000366.1199951-.1600342.1799927-.2799683.2900391-.6199951.2900391-.9799805 0-.5800171-.2800293-1.1099854-.710022-1.4299927l1.7009888-3.4019775c.3145752-.6291504.0610352-1.3942261-.5670166-1.7109985-.6311646-.3183594-1.4008789-.0632935-1.71698.5689697l-2.0969849 4.1939697h-3.4899902l-3.9600201-4.6999512c-.7399902-.6300049-1.6599731-.9700317-2.6199951-.9700317-1.1300049 0-2.1500244.460022-2.8800049 1.2000122-.7299805.7299805-1.1799927 1.7399902-1.1799927 2.8599854v5.1600342h8.0599957z" fill="#eb493a" fill-opacity="1" data-original-color="#000000ff" stroke="none" stroke-opacity="1"/></g></g></svg>